<svg width="1200" height="1200" viewBox="0 0 1200 1200" fill="none" xmlns="http://www.w3.org/2000/svg">
  <rect width="1200" height="1200" rx="80" fill="#16181D"/>
  <rect x="72" y="72" width="1056" height="1056" rx="56" fill="#111827" stroke="#374151" stroke-width="8"/>
  <rect x="132" y="132" width="936" height="936" rx="44" fill="#1F2937"/>
  <rect x="190" y="190" width="290" height="390" rx="40" fill="#FACC15"/>
  <rect x="225" y="240" width="220" height="280" rx="24" fill="#111827"/>
  <circle cx="335" cy="555" r="18" fill="#111827"/>
  <rect x="710" y="180" width="280" height="280" rx="24" fill="white"/>
  <rect x="746" y="216" width="72" height="72" fill="#111827"/>
  <rect x="882" y="216" width="72" height="72" fill="#111827"/>
  <rect x="746" y="352" width="72" height="72" fill="#111827"/>
  <rect x="834" y="304" width="32" height="32" fill="#111827"/>
  <rect x="896" y="336" width="32" height="32" fill="#111827"/>
  <rect x="230" y="560" width="740" height="220" rx="32" fill="#0B1222" stroke="#374151" stroke-width="6"/>
  <text x="270" y="645" fill="white" font-family="Arial, sans-serif" font-size="62" font-weight="700">Asset Recovery QR</text>
  <text x="270" y="715" fill="#9CA3AF" font-family="Arial, sans-serif" font-size="34">Ideal for keys, wallets, luggage, backpacks, laptops, and everyday belongings.</text>
  <rect x="230" y="846" width="310" height="110" rx="26" fill="#FACC15"/>
  <text x="285" y="916" fill="#111827" font-family="Arial, sans-serif" font-size="44" font-weight="700">Shop Assets</text>
</svg>
