<svg width="1200" height="1200" viewBox="0 0 1200 1200" fill="none" xmlns="http://www.w3.org/2000/svg">
  <rect width="1200" height="1200" rx="48" fill="#06111D"/>
  <rect x="140" y="180" width="920" height="840" rx="46" fill="#0F172A"/>
  <rect x="220" y="260" width="360" height="560" rx="40" fill="#1E293B"/>
  <rect x="280" y="340" width="240" height="400" rx="28" fill="#182235"/>
  <rect x="320" y="440" width="160" height="160" rx="24" fill="#FFFFFF"/>
  <rect x="350" y="470" width="28" height="28" fill="#020817"/>
  <rect x="390" y="470" width="28" height="28" fill="#020817"/>
  <rect x="430" y="470" width="20" height="20" fill="#020817"/>
  <rect x="350" y="510" width="28" height="28" fill="#020817"/>
  <rect x="430" y="510" width="20" height="20" fill="#020817"/>
  <rect x="350" y="550" width="20" height="20" fill="#020817"/>
  <rect x="390" y="550" width="20" height="20" fill="#020817"/>
  <rect x="430" y="550" width="20" height="20" fill="#020817"/>
  <text x="640" y="380" fill="#FFFFFF" font-size="52" font-family="Arial, sans-serif" font-weight="700">School bag ready</text>
  <text x="640" y="442" fill="#94A3B8" font-size="28" font-family="Arial, sans-serif">Includes school name, class, and teacher contact fields</text>
  <text x="640" y="494" fill="#94A3B8" font-size="28" font-family="Arial, sans-serif">Parent and emergency details stay editable after purchase</text>
  <rect x="640" y="620" width="280" height="102" rx="24" fill="#111827" stroke="#FF6B2C" stroke-width="3"/>
  <text x="780" y="680" text-anchor="middle" fill="#FF6B2C" font-size="30" font-family="Arial, sans-serif" font-weight="700">Daily school safety</text>
</svg>
