<svg width="1200" height="1200" viewBox="0 0 1200 1200" fill="none" xmlns="http://www.w3.org/2000/svg">
  <rect width="1200" height="1200" rx="48" fill="#020817"/>
  <rect x="120" y="180" width="960" height="840" rx="48" fill="#111827"/>
  <path d="M250 780H950L885 620H315L250 780Z" fill="#1E293B"/>
  <rect x="360" y="470" width="480" height="170" rx="24" fill="#FFFFFF"/>
  <rect x="405" y="515" width="38" height="38" fill="#020817"/>
  <rect x="463" y="515" width="38" height="38" fill="#020817"/>
  <rect x="521" y="515" width="26" height="26" fill="#020817"/>
  <rect x="405" y="573" width="38" height="38" fill="#020817"/>
  <rect x="521" y="573" width="26" height="26" fill="#020817"/>
  <rect x="680" y="505" width="118" height="22" rx="11" fill="#FF6B2C"/>
  <rect x="680" y="548" width="98" height="18" rx="9" fill="#94A3B8"/>
  <rect x="680" y="585" width="112" height="18" rx="9" fill="#94A3B8"/>
  <text x="190" y="280" fill="#FFFFFF" font-size="56" font-family="Arial, sans-serif" font-weight="700">Premium windshield finish</text>
  <text x="190" y="340" fill="#94A3B8" font-size="28" font-family="Arial, sans-serif">High-contrast QR zone with parking-first messaging</text>
  <circle cx="385" cy="820" r="58" fill="#0F172A" stroke="#475569" stroke-width="8"/>
  <circle cx="815" cy="820" r="58" fill="#0F172A" stroke="#475569" stroke-width="8"/>
</svg>
