<svg width="1200" height="1200" viewBox="0 0 1200 1200" fill="none" xmlns="http://www.w3.org/2000/svg">
  <rect width="1200" height="1200" rx="48" fill="#081122"/>
  <rect x="150" y="190" width="900" height="820" rx="46" fill="#0F172A"/>
  <rect x="210" y="250" width="780" height="460" rx="36" fill="#1E293B"/>
  <rect x="300" y="340" width="320" height="250" rx="24" fill="#FFFFFF"/>
  <rect x="340" y="380" width="44" height="44" fill="#020817"/>
  <rect x="398" y="380" width="44" height="44" fill="#020817"/>
  <rect x="456" y="380" width="32" height="32" fill="#020817"/>
  <rect x="340" y="438" width="44" height="44" fill="#020817"/>
  <rect x="456" y="438" width="32" height="32" fill="#020817"/>
  <rect x="340" y="496" width="32" height="32" fill="#020817"/>
  <rect x="398" y="496" width="32" height="32" fill="#020817"/>
  <rect x="456" y="496" width="32" height="32" fill="#020817"/>
  <text x="680" y="420" fill="#FFFFFF" font-size="52" font-family="Arial, sans-serif" font-weight="700">Scan to contact owner</text>
  <text x="680" y="486" fill="#94A3B8" font-size="28" font-family="Arial, sans-serif">Wrong parking or urgent issue</text>
  <text x="680" y="532" fill="#94A3B8" font-size="28" font-family="Arial, sans-serif">No number printed on the sticker</text>
  <rect x="240" y="770" width="720" height="120" rx="24" fill="#020817" stroke="#FF6B2C" stroke-width="3"/>
  <text x="600" y="842" text-anchor="middle" fill="#FF6B2C" font-size="36" font-family="Arial, sans-serif" font-weight="700">Permanent QR linked to your dashboard profile</text>
</svg>
