<svg width="1200" height="1200" viewBox="0 0 1200 1200" fill="none" xmlns="http://www.w3.org/2000/svg">
  <rect width="1200" height="1200" rx="48" fill="#081122"/>
  <rect x="130" y="180" width="940" height="840" rx="46" fill="#111827"/>
  <rect x="200" y="260" width="800" height="330" rx="36" fill="#182235"/>
  <rect x="260" y="330" width="230" height="230" rx="30" fill="#FFFFFF"/>
  <rect x="300" y="370" width="38" height="38" fill="#020817"/>
  <rect x="350" y="370" width="38" height="38" fill="#020817"/>
  <rect x="400" y="370" width="26" height="26" fill="#020817"/>
  <rect x="300" y="420" width="38" height="38" fill="#020817"/>
  <rect x="400" y="420" width="26" height="26" fill="#020817"/>
  <rect x="300" y="470" width="26" height="26" fill="#020817"/>
  <rect x="350" y="470" width="26" height="26" fill="#020817"/>
  <rect x="400" y="470" width="26" height="26" fill="#020817"/>
  <text x="560" y="380" fill="#FFFFFF" font-size="50" font-family="Arial, sans-serif" font-weight="700">Scan for guardian contact</text>
  <text x="560" y="438" fill="#94A3B8" font-size="28" font-family="Arial, sans-serif">Best for trips, events, malls, and public spaces</text>
  <text x="560" y="490" fill="#94A3B8" font-size="28" font-family="Arial, sans-serif">No need to reprint when parent details change</text>
  <rect x="260" y="700" width="680" height="160" rx="30" fill="#0F172A"/>
  <text x="320" y="775" fill="#FF6B2C" font-size="34" font-family="Arial, sans-serif" font-weight="700">Permanent QR " Child safety profile " Dashboard editable</text>
  <text x="320" y="825" fill="#CBD5E1" font-size="26" font-family="Arial, sans-serif">The same QR continues working even as guardian details evolve.</text>
</svg>
