<svg width="1200" height="1200" viewBox="0 0 1200 1200" fill="none" xmlns="http://www.w3.org/2000/svg">
  <rect width="1200" height="1200" rx="48" fill="#06111D"/>
  <rect x="130" y="180" width="940" height="840" rx="46" fill="#0F172A"/>
  <rect x="250" y="250" width="300" height="700" rx="150" fill="#1E293B"/>
  <rect x="320" y="340" width="160" height="520" rx="80" fill="#FF6B2C" fill-opacity="0.2" stroke="#FF6B2C" stroke-width="4"/>
  <rect x="350" y="520" width="100" height="100" rx="20" fill="#FFFFFF"/>
  <rect x="370" y="540" width="18" height="18" fill="#020817"/>
  <rect x="396" y="540" width="18" height="18" fill="#020817"/>
  <rect x="422" y="540" width="12" height="12" fill="#020817"/>
  <rect x="370" y="566" width="18" height="18" fill="#020817"/>
  <rect x="422" y="566" width="12" height="12" fill="#020817"/>
  <rect x="370" y="592" width="12" height="12" fill="#020817"/>
  <rect x="396" y="592" width="12" height="12" fill="#020817"/>
  <rect x="422" y="592" width="12" height="12" fill="#020817"/>
  <text x="650" y="380" fill="#FFFFFF" font-size="52" font-family="Arial, sans-serif" font-weight="700">Wearable and scan-ready</text>
  <text x="650" y="444" fill="#94A3B8" font-size="28" font-family="Arial, sans-serif">Easy to access during travel and crowded outings</text>
  <text x="650" y="500" fill="#94A3B8" font-size="28" font-family="Arial, sans-serif">Parent and emergency details stay editable later</text>
  <rect x="650" y="610" width="280" height="100" rx="26" fill="#111827" stroke="#FF6B2C" stroke-width="3"/>
  <text x="790" y="669" text-anchor="middle" fill="#FF6B2C" font-size="30" font-family="Arial, sans-serif" font-weight="700">Travel-friendly protection</text>
</svg>
